<svg width="40" height="40" fill="none" xmlns="http://www.w3.org/2000/svg"><circle cx="20" cy="20" r="20" fill="#B07DFB"/><circle cx="20" cy="20" r="19" fill="#fff"/><path d="m19 9-7.5-2 2 4.5-4.5-1 2.5 4L9 21l6.5 9 4.5 2 4-2 6.5-9-2-6.5 2-4-4.5 2L28 7l-7 2-1.5 2.5L19 9Z" stroke="#8A46EE"/><path d="m14.5 14-1 2.5 2 1.5-2 4.5 2 .5v4l4.5 1.5 4.5-2-.5-3 2.5-1-2-4.5 1-2-1-2-2 .5-.5 1h-4L17 14h-2.5Z" stroke="#8A46EE"/><ellipse cx="17.5" cy="19" rx=".5" ry="1" fill="#8A46EE"/><ellipse cx="21.5" cy="19" rx=".5" ry="1" fill="#8A46EE"/><path d="m20 24 2-2.5h-4.5L20 24Zm0 0v2.5" stroke="#8A46EE"/></svg>